<mxfile host="Electron" modified="2023-05-13T07:56:08.408Z" agent="Mozilla/5.0 (Macintosh; Intel Mac OS X 10_15_7) AppleWebKit/537.36 (KHTML, like Gecko) draw.io/21.2.8 Chrome/112.0.5615.165 Electron/24.2.0 Safari/537.36" etag="EHSm1fVbwv-q96WLWqGQ" version="21.2.8" type="device">
  <diagram name="原理" id="2p9RjubmjUR03VWtuXiu">
    <mxGraphModel dx="918" dy="634" grid="1" gridSize="10" guides="1" tooltips="1" connect="1" arrows="1" fold="1" page="1" pageScale="1" pageWidth="827" pageHeight="1169" math="0" shadow="0">
      <root>
        <mxCell id="0" />
        <mxCell id="1" parent="0" />
        <mxCell id="R0dfF9_XK71j3bc-1hLq-1" value="Container1" style="rounded=1;whiteSpace=wrap;html=1;verticalAlign=top;fillColor=#f5f5f5;strokeColor=#666666;gradientColor=#b3b3b3;" vertex="1" parent="1">
          <mxGeometry x="170" y="160" width="150" height="60" as="geometry" />
        </mxCell>
        <mxCell id="R0dfF9_XK71j3bc-1hLq-15" style="edgeStyle=orthogonalEdgeStyle;rounded=0;orthogonalLoop=1;jettySize=auto;html=1;exitX=0.5;exitY=1;exitDx=0;exitDy=0;entryX=0.5;entryY=0;entryDx=0;entryDy=0;endArrow=none;endFill=0;" edge="1" parent="1" source="R0dfF9_XK71j3bc-1hLq-2" target="R0dfF9_XK71j3bc-1hLq-10">
          <mxGeometry relative="1" as="geometry" />
        </mxCell>
        <mxCell id="R0dfF9_XK71j3bc-1hLq-2" value="网卡" style="rounded=0;whiteSpace=wrap;html=1;fillColor=#d5e8d4;gradientColor=#97d077;strokeColor=#82b366;" vertex="1" parent="1">
          <mxGeometry x="210" y="200" width="70" height="30" as="geometry" />
        </mxCell>
        <mxCell id="R0dfF9_XK71j3bc-1hLq-3" value="Container2" style="rounded=1;whiteSpace=wrap;html=1;verticalAlign=top;fillColor=#f5f5f5;strokeColor=#666666;gradientColor=#b3b3b3;" vertex="1" parent="1">
          <mxGeometry x="340" y="160" width="150" height="60" as="geometry" />
        </mxCell>
        <mxCell id="R0dfF9_XK71j3bc-1hLq-16" style="edgeStyle=orthogonalEdgeStyle;rounded=0;orthogonalLoop=1;jettySize=auto;html=1;exitX=0.5;exitY=1;exitDx=0;exitDy=0;entryX=0.5;entryY=0;entryDx=0;entryDy=0;endArrow=none;endFill=0;" edge="1" parent="1" source="R0dfF9_XK71j3bc-1hLq-4" target="R0dfF9_XK71j3bc-1hLq-11">
          <mxGeometry relative="1" as="geometry" />
        </mxCell>
        <mxCell id="R0dfF9_XK71j3bc-1hLq-4" value="网卡1" style="rounded=0;whiteSpace=wrap;html=1;fillColor=#d5e8d4;gradientColor=#97d077;strokeColor=#82b366;" vertex="1" parent="1">
          <mxGeometry x="351" y="200" width="50" height="30" as="geometry" />
        </mxCell>
        <mxCell id="R0dfF9_XK71j3bc-1hLq-5" value="Container3" style="rounded=1;whiteSpace=wrap;html=1;verticalAlign=top;fillColor=#f5f5f5;strokeColor=#666666;gradientColor=#b3b3b3;" vertex="1" parent="1">
          <mxGeometry x="510" y="160" width="150" height="60" as="geometry" />
        </mxCell>
        <mxCell id="R0dfF9_XK71j3bc-1hLq-18" style="edgeStyle=orthogonalEdgeStyle;rounded=0;orthogonalLoop=1;jettySize=auto;html=1;exitX=0.5;exitY=1;exitDx=0;exitDy=0;entryX=0.5;entryY=0;entryDx=0;entryDy=0;endArrow=none;endFill=0;" edge="1" parent="1" source="R0dfF9_XK71j3bc-1hLq-6" target="R0dfF9_XK71j3bc-1hLq-14">
          <mxGeometry relative="1" as="geometry" />
        </mxCell>
        <mxCell id="R0dfF9_XK71j3bc-1hLq-6" value="网卡" style="rounded=0;whiteSpace=wrap;html=1;fillColor=#d5e8d4;gradientColor=#97d077;strokeColor=#82b366;" vertex="1" parent="1">
          <mxGeometry x="550" y="200" width="70" height="30" as="geometry" />
        </mxCell>
        <mxCell id="R0dfF9_XK71j3bc-1hLq-17" style="edgeStyle=orthogonalEdgeStyle;rounded=0;orthogonalLoop=1;jettySize=auto;html=1;exitX=0.5;exitY=1;exitDx=0;exitDy=0;entryX=0.5;entryY=0;entryDx=0;entryDy=0;endArrow=none;endFill=0;" edge="1" parent="1" source="R0dfF9_XK71j3bc-1hLq-7" target="R0dfF9_XK71j3bc-1hLq-13">
          <mxGeometry relative="1" as="geometry" />
        </mxCell>
        <mxCell id="R0dfF9_XK71j3bc-1hLq-7" value="网卡2" style="rounded=0;whiteSpace=wrap;html=1;fillColor=#d5e8d4;gradientColor=#97d077;strokeColor=#82b366;" vertex="1" parent="1">
          <mxGeometry x="430" y="200" width="50" height="30" as="geometry" />
        </mxCell>
        <mxCell id="R0dfF9_XK71j3bc-1hLq-8" value="bridge1" style="rounded=1;whiteSpace=wrap;html=1;verticalAlign=bottom;fillColor=#f8cecc;gradientColor=#ea6b66;strokeColor=#b85450;" vertex="1" parent="1">
          <mxGeometry x="170" y="270" width="240" height="40" as="geometry" />
        </mxCell>
        <mxCell id="R0dfF9_XK71j3bc-1hLq-10" value="终端" style="rounded=0;whiteSpace=wrap;html=1;fillColor=#dae8fc;gradientColor=#7ea6e0;strokeColor=#6c8ebf;" vertex="1" parent="1">
          <mxGeometry x="210" y="260" width="70" height="30" as="geometry" />
        </mxCell>
        <mxCell id="R0dfF9_XK71j3bc-1hLq-11" value="终端1" style="rounded=0;whiteSpace=wrap;html=1;fillColor=#dae8fc;gradientColor=#7ea6e0;strokeColor=#6c8ebf;" vertex="1" parent="1">
          <mxGeometry x="351" y="260" width="50" height="30" as="geometry" />
        </mxCell>
        <mxCell id="R0dfF9_XK71j3bc-1hLq-12" value="bridge2" style="rounded=1;whiteSpace=wrap;html=1;verticalAlign=bottom;fillColor=#f8cecc;gradientColor=#ea6b66;strokeColor=#b85450;" vertex="1" parent="1">
          <mxGeometry x="420" y="270" width="240" height="40" as="geometry" />
        </mxCell>
        <mxCell id="R0dfF9_XK71j3bc-1hLq-13" value="终端2" style="rounded=0;whiteSpace=wrap;html=1;fillColor=#dae8fc;gradientColor=#7ea6e0;strokeColor=#6c8ebf;" vertex="1" parent="1">
          <mxGeometry x="430" y="260" width="50" height="30" as="geometry" />
        </mxCell>
        <mxCell id="R0dfF9_XK71j3bc-1hLq-14" value="终端" style="rounded=0;whiteSpace=wrap;html=1;fillColor=#dae8fc;gradientColor=#7ea6e0;strokeColor=#6c8ebf;" vertex="1" parent="1">
          <mxGeometry x="550" y="260" width="70" height="30" as="geometry" />
        </mxCell>
      </root>
    </mxGraphModel>
  </diagram>
</mxfile>
